<?xml version="1.0" encoding="utf-8"?>
<!-- Generator: Adobe Illustrator 28.1.0, SVG Export Plug-In . SVG Version: 6.00 Build 0)  -->
<svg version="1.1" id="Layer_1" xmlns="http://www.w3.org/2000/svg" xmlns:xlink="http://www.w3.org/1999/xlink" x="0px" y="0px"
	 viewBox="0 0 23.63 26.65" enable-background="new 0 0 23.63 26.65" xml:space="preserve" width="100%" height="100%">
<g>
	<path fill="none" stroke="#F3F1EF" stroke-width="1.6" stroke-linejoin="round" stroke-miterlimit="10" d="M12.08,25.85h-0.54
		c-4.25,0-7.72-3.48-7.72-7.72V11.5c0-4.25,3.48-7.72,7.72-7.72h0.54c4.25,0,7.72,3.48,7.72,7.72v6.62
		C19.81,22.37,16.33,25.85,12.08,25.85z"/>
	<g>
		
			<line fill="none" stroke="#F3F1EF" stroke-width="1.6" stroke-linejoin="round" stroke-miterlimit="10" x1="5.55" y1="0.57" x2="8.79" y2="3.8"/>
		
			<line fill="none" stroke="#F3F1EF" stroke-width="1.6" stroke-linejoin="round" stroke-miterlimit="10" x1="18.08" y1="0.57" x2="14.84" y2="3.8"/>
	</g>
	<g>
		<g>
			
				<line fill="none" stroke="#F3F1EF" stroke-width="1.6" stroke-linejoin="round" stroke-miterlimit="10" x1="3.82" y1="9.57" x2="0" y2="9.57"/>
			
				<line fill="none" stroke="#F3F1EF" stroke-width="1.6" stroke-linejoin="round" stroke-miterlimit="10" x1="3.82" y1="14.72" x2="0" y2="14.72"/>
			
				<line fill="none" stroke="#F3F1EF" stroke-width="1.6" stroke-linejoin="round" stroke-miterlimit="10" x1="3.82" y1="19.87" x2="0" y2="19.87"/>
		</g>
		<g>
			
				<line fill="none" stroke="#F3F1EF" stroke-width="1.6" stroke-linejoin="round" stroke-miterlimit="10" x1="23.63" y1="9.57" x2="19.81" y2="9.57"/>
			
				<line fill="none" stroke="#F3F1EF" stroke-width="1.6" stroke-linejoin="round" stroke-miterlimit="10" x1="23.63" y1="14.72" x2="19.81" y2="14.72"/>
			
				<line fill="none" stroke="#F3F1EF" stroke-width="1.6" stroke-linejoin="round" stroke-miterlimit="10" x1="23.63" y1="19.87" x2="19.81" y2="19.87"/>
		</g>
	</g>
	
		<line fill="none" stroke="#F3F1EF" stroke-width="1.6" stroke-linejoin="round" stroke-miterlimit="10" x1="14.53" y1="12.58" x2="9.1" y2="12.58"/>
	
		<line fill="none" stroke="#F3F1EF" stroke-width="1.6" stroke-linejoin="round" stroke-miterlimit="10" x1="14.53" y1="17.05" x2="9.1" y2="17.05"/>
</g>
<g>
</g>
<g>
</g>
<g>
</g>
<g>
</g>
<g>
</g>
<g>
</g>
</svg>
