<?xml version="1.0" encoding="utf-8"?>
<!-- Generator: Adobe Illustrator 28.1.0, SVG Export Plug-In . SVG Version: 6.00 Build 0)  -->
<svg version="1.1" id="Layer_1" xmlns="http://www.w3.org/2000/svg" xmlns:xlink="http://www.w3.org/1999/xlink" x="0px" y="0px"
	 viewBox="0 0 21.76 22.33" enable-background="new 0 0 21.76 22.33" xml:space="preserve">
<path fill="none" stroke="#F3F1EF" stroke-width="1.6" stroke-linejoin="round" stroke-miterlimit="10" d="M20.65,14.28
	c-0.55-0.33-1.11-0.66-1.65-1.03c-0.93-0.62-1.38-1.31-1.38-2.12c0-0.81,0.45-1.5,1.38-2.12c0.48-0.32,0.98-0.62,1.48-0.92
	l0.46-0.28l-2.19-3.79L18.43,4.2c-0.55,0.31-1.11,0.62-1.68,0.9c-1,0.49-1.83,0.54-2.53,0.14c-0.69-0.4-1.07-1.14-1.15-2.26
	c-0.04-0.6-0.06-1.21-0.06-1.82l0-0.36H8.63L8.61,1.46C8.6,1.97,8.59,2.48,8.55,2.98C8.48,4.1,8.11,4.84,7.41,5.24
	C6.71,5.65,5.88,5.6,4.88,5.1C4.35,4.84,3.85,4.56,3.33,4.28L3.02,4.1L0.82,7.9l0.31,0.19c0.5,0.3,1,0.61,1.49,0.93
	C3.56,9.63,4,10.33,4,11.13c0,0.81-0.45,1.5-1.37,2.12c-0.46,0.31-0.93,0.59-1.4,0.87L0.8,14.38l2.19,3.8L3.3,18
	c0.52-0.29,1.04-0.58,1.58-0.84c1-0.49,1.83-0.54,2.53-0.13c0.7,0.4,1.07,1.14,1.14,2.26c0.04,0.6,0.05,1.2,0.06,1.88l0.01,0.36
	h4.38l0-0.37c0-0.62,0.02-1.25,0.06-1.87c0.07-1.12,0.45-1.86,1.15-2.26c0.69-0.4,1.52-0.36,2.53,0.13
	c0.49,0.24,0.97,0.51,1.45,0.78l0.57,0.32l2.19-3.79L20.65,14.28z M13.2,11.16c0,1.28-1.04,2.32-2.32,2.32
	c-1.28,0-2.32-1.04-2.32-2.32c0-1.28,1.04-2.32,2.32-2.32C12.16,8.85,13.2,9.88,13.2,11.16z"/>
<g>
</g>
<g>
</g>
<g>
</g>
<g>
</g>
<g>
</g>
<g>
</g>
</svg>
