<?xml version="1.0" encoding="utf-8"?>
<!-- Generator: Adobe Illustrator 28.1.0, SVG Export Plug-In . SVG Version: 6.00 Build 0)  -->
<svg version="1.1" id="Layer_1" xmlns="http://www.w3.org/2000/svg" xmlns:xlink="http://www.w3.org/1999/xlink" x="0px" y="0px"
	 viewBox="0 0 16.74 16.46" enable-background="new 0 0 16.74 16.46" xml:space="preserve" width="100%" height="100%">
<path fill-rule="evenodd" clip-rule="evenodd" fill="#F3F1EF" d="M8.37,0C3.74,0,0,3.77,0,8.44c0,3.73,2.4,6.89,5.73,8
	c0.42,0.08,0.57-0.18,0.57-0.4c0-0.2-0.01-0.87-0.01-1.56c-2.33,0.5-2.81-1.01-2.81-1.01c-0.37-0.98-0.93-1.23-0.93-1.23
	c-0.76-0.52,0.06-0.52,0.06-0.52c0.85,0.06,1.29,0.87,1.29,0.87c0.75,1.28,1.95,0.92,2.44,0.7c0.07-0.54,0.29-0.92,0.53-1.13
	c-1.86-0.2-3.81-0.92-3.81-4.16c0-0.92,0.33-1.68,0.86-2.26C3.81,5.52,3.52,4.65,3.98,3.49c0,0,0.71-0.22,2.3,0.87
	c0.68-0.18,1.39-0.28,2.09-0.28c0.71,0,1.43,0.1,2.09,0.28c1.59-1.09,2.3-0.87,2.3-0.87c0.46,1.16,0.17,2.03,0.08,2.24
	c0.54,0.59,0.86,1.34,0.86,2.26c0,3.24-1.95,3.95-3.83,4.16c0.31,0.27,0.57,0.77,0.57,1.56c0,1.13-0.01,2.04-0.01,2.32
	c0,0.22,0.15,0.49,0.57,0.41c3.33-1.12,5.73-4.27,5.73-8C16.75,3.77,12.99,0,8.37,0z"/>
</svg>
