<?xml version="1.0" encoding="utf-8"?>
<!-- Generator: Adobe Illustrator 28.1.0, SVG Export Plug-In . SVG Version: 6.00 Build 0)  -->
<svg version="1.1" id="Layer_1" xmlns="http://www.w3.org/2000/svg" xmlns:xlink="http://www.w3.org/1999/xlink" x="0px" y="0px"
	 viewBox="0 0 28.33 19.99" enable-background="new 0 0 28.33 19.99" xml:space="preserve" width="100%" height="100%">
<g>
	<g>
		<polyline fill="none" stroke="#F3F1EF" stroke-width="1.6" stroke-linejoin="round" stroke-miterlimit="10" points="4.28,19.19 
			0.8,19.19 0.8,0.8 4.28,0.8 		"/>
		<polyline fill="none" stroke="#F3F1EF" stroke-width="1.6" stroke-linejoin="round" stroke-miterlimit="10" points="24.05,0.8 
			27.53,0.8 27.53,19.19 24.05,19.19 		"/>
	</g>
	<g>
		<path fill="#F3F1EF" d="M10.25,5.41h1.84l0.01,6.61c0,0.45-0.09,0.87-0.26,1.24c-0.17,0.37-0.4,0.7-0.69,0.97
			s-0.64,0.48-1.03,0.63C9.72,15,9.3,15.08,8.84,15.08c-0.48,0-0.92-0.06-1.31-0.18c-0.39-0.12-0.73-0.3-1.01-0.55
			c-0.28-0.24-0.5-0.55-0.66-0.91c-0.16-0.37-0.24-0.8-0.24-1.29h1.85c0,0.51,0.12,0.88,0.34,1.11c0.22,0.23,0.57,0.34,1.03,0.34
			c0.21,0,0.4-0.04,0.58-0.12c0.17-0.08,0.32-0.19,0.45-0.33s0.22-0.31,0.29-0.5c0.07-0.19,0.1-0.4,0.1-0.63V5.41z"/>
		<path fill="#F3F1EF" d="M20.09,12.46c0-0.17-0.03-0.33-0.09-0.48c-0.06-0.15-0.16-0.29-0.3-0.42s-0.33-0.25-0.56-0.35
			c-0.23-0.11-0.51-0.21-0.85-0.3c-0.42-0.11-0.81-0.25-1.19-0.43c-0.38-0.17-0.71-0.38-1-0.62c-0.29-0.24-0.52-0.52-0.69-0.84
			c-0.17-0.32-0.26-0.69-0.26-1.1c0-0.4,0.08-0.77,0.26-1.09c0.17-0.33,0.41-0.61,0.71-0.84c0.3-0.23,0.66-0.41,1.07-0.53
			c0.41-0.12,0.86-0.19,1.34-0.19c0.5,0,0.95,0.07,1.37,0.22c0.41,0.14,0.77,0.35,1.06,0.61s0.53,0.57,0.69,0.93
			c0.17,0.36,0.25,0.75,0.25,1.18H20.1C20.09,8,20.05,7.8,19.98,7.62c-0.07-0.18-0.17-0.33-0.3-0.46c-0.13-0.13-0.3-0.23-0.5-0.3
			c-0.2-0.07-0.43-0.11-0.7-0.11c-0.24,0-0.46,0.03-0.65,0.09c-0.19,0.06-0.35,0.14-0.48,0.25c-0.13,0.11-0.23,0.23-0.3,0.38
			c-0.07,0.15-0.1,0.3-0.1,0.47c0,0.18,0.04,0.34,0.13,0.48c0.09,0.14,0.22,0.27,0.39,0.39c0.17,0.12,0.38,0.22,0.62,0.32
			c0.24,0.1,0.52,0.19,0.82,0.27c0.44,0.13,0.84,0.28,1.21,0.46c0.37,0.18,0.68,0.4,0.95,0.65c0.26,0.25,0.47,0.54,0.62,0.86
			c0.15,0.32,0.22,0.68,0.22,1.07c0,0.42-0.08,0.79-0.25,1.12c-0.17,0.33-0.4,0.6-0.7,0.82c-0.3,0.23-0.65,0.4-1.06,0.51
			c-0.41,0.12-0.86,0.17-1.34,0.17c-0.3,0-0.6-0.03-0.9-0.08c-0.3-0.05-0.58-0.14-0.86-0.25s-0.53-0.25-0.76-0.43
			c-0.24-0.17-0.44-0.37-0.61-0.6c-0.17-0.23-0.31-0.48-0.41-0.77c-0.1-0.29-0.15-0.61-0.15-0.96h1.81
			c0.01,0.29,0.06,0.53,0.15,0.74c0.09,0.21,0.22,0.37,0.38,0.5s0.36,0.23,0.59,0.29c0.23,0.06,0.48,0.09,0.76,0.09
			c0.25,0,0.46-0.03,0.65-0.08c0.19-0.06,0.35-0.14,0.48-0.24c0.13-0.1,0.23-0.22,0.3-0.36C20.06,12.79,20.09,12.63,20.09,12.46z"/>
	</g>
</g>
<g>
</g>
<g>
</g>
<g>
</g>
<g>
</g>
<g>
</g>
<g>
</g>
</svg>
