<?xml version="1.0" encoding="utf-8"?>
<!-- Generator: Adobe Illustrator 28.1.0, SVG Export Plug-In . SVG Version: 6.00 Build 0)  -->
<svg version="1.1" id="Layer_1" xmlns="http://www.w3.org/2000/svg" xmlns:xlink="http://www.w3.org/1999/xlink" x="0px" y="0px"
	 viewBox="0 0 17.22 16.46" enable-background="new 0 0 17.22 16.46" xml:space="preserve" width="100%" height="100%">
<g>
	<g>
		
			<path id="path28_00000049910435302241043490000014109574719452370304_" fill-rule="evenodd" clip-rule="evenodd" fill="#F3F1EF" d="
			M3.91,16.46V5.35H0.22v11.1H3.91z M2.06,3.84c1.29,0,2.09-0.85,2.09-1.92C4.13,0.83,3.35,0,2.09,0C0.83,0,0,0.83,0,1.92
			c0,1.07,0.8,1.92,2.04,1.92H2.06L2.06,3.84z"/>
		
			<path id="path30_00000054953217126208436290000003269060569989556404_" fill-rule="evenodd" clip-rule="evenodd" fill="#F3F1EF" d="
			M5.95,16.46h3.69v-6.2c0-0.33,0.02-0.66,0.12-0.9c0.27-0.66,0.87-1.35,1.89-1.35c1.34,0,1.87,1.02,1.87,2.51v5.94h3.69v-6.37
			c0-3.41-1.82-5-4.25-5c-1.99,0-2.87,1.11-3.35,1.87h0.02V5.35H5.95C6,6.39,5.95,16.46,5.95,16.46L5.95,16.46z"/>
	</g>
</g>
</svg>
